<svg width="1039" height="1039" viewBox="0 0 1039 1039" fill="none" xmlns="http://www.w3.org/2000/svg">
<path fill-rule="evenodd" clip-rule="evenodd" d="M359.935 158.402C348.567 159.871 347.086 160.278 341.517 163.461C339.288 164.736 335.144 167.088 332.308 168.689C328.448 170.866 325.807 173.16 321.809 177.805C318.871 181.218 316.468 184.223 316.468 184.481C316.468 184.74 315.142 186.707 313.521 188.852C311.9 190.997 310.574 192.954 310.574 193.2C310.574 193.447 309.58 195.121 308.364 196.921C307.148 198.72 306.154 200.658 306.154 201.227C306.154 201.796 305.868 202.576 305.519 202.96C304.174 204.441 302.471 213.804 302.485 219.638C302.511 230.093 303.616 235.126 307.724 243.467C308.745 245.542 308.248 249.743 306.89 250.516C305.905 251.077 300.062 253.776 289.802 258.411C287.9 259.27 285.823 259.973 285.187 259.973C284.552 259.973 283.456 260.29 282.752 260.677C282.048 261.064 279.171 262.409 276.356 263.664C273.542 264.92 269.729 267.037 267.884 268.367C266.038 269.698 263.036 271.573 261.213 272.534C259.389 273.495 257.4 274.666 256.792 275.138C256.185 275.609 251.377 278.231 246.11 280.964C240.842 283.697 235.101 287.132 233.351 288.596C231.6 290.06 228.933 292.087 227.422 293.099C219.913 298.13 214.331 303.223 197.573 320.336C182.072 336.163 179.331 339.277 171.975 349.413C162.556 362.391 155.031 373.246 153.601 375.913C151.241 380.32 146.048 389.267 143.25 393.746C141.676 396.267 140.388 398.628 140.388 398.993C140.388 399.358 139.891 400.069 139.283 400.574C138.675 401.078 138.178 402.003 138.178 402.63C138.178 403.257 137.742 404.293 137.207 404.932C136.21 406.128 133.41 412.847 131.202 419.345C130.513 421.369 129.516 424.019 128.985 425.234C126.606 430.673 124.375 436.675 123.103 441.06C122.457 443.287 121.631 446.103 121.267 447.318C120.904 448.532 119.896 452.176 119.028 455.415C118.161 458.654 116.667 463.457 115.709 466.089C113.352 472.567 110.182 487.21 110.182 491.619C110.182 493.048 109.713 496.087 109.141 498.372C105.91 511.269 104.917 547.233 107.37 562.521C108.052 566.772 108.814 573.894 109.065 578.348C109.538 586.76 111.11 597.294 112.746 603.008C113.267 604.83 114.249 608.805 114.927 611.842C115.606 614.878 116.619 619.019 117.18 621.043C117.741 623.068 118.599 626.711 119.086 629.141C119.574 631.57 120.422 634.291 120.971 635.188C121.52 636.085 121.97 637.337 121.97 637.973C121.97 638.608 122.83 640.824 123.881 642.897C124.933 644.97 126.235 648.363 126.776 650.438C127.317 652.511 128.568 655.856 129.558 657.869C130.547 659.883 132.46 663.849 133.81 666.683C135.159 669.517 138.019 674.754 140.167 678.32C142.314 681.886 144.072 685.058 144.072 685.369C144.072 685.68 148.796 690.76 154.57 696.657C164.931 707.239 171.558 712.99 174.818 714.229C177.672 715.312 176.887 717.546 172.989 719.44C165.216 723.215 156.911 734.32 154.364 744.344C153.901 746.166 153.01 749.645 152.383 752.074C151.023 757.353 150.76 766.07 151.63 777.102C152.915 793.412 158.367 805.583 168.61 815.013C172.351 818.455 180.016 823.846 181.173 823.846C181.538 823.846 183.439 824.996 185.396 826.4C190.142 829.807 193.017 830.93 198.659 831.58C203.76 832.167 204.147 832.456 212.416 841.814C218.073 848.216 218.925 848.678 239.111 856.266C240.599 856.825 246.519 857.413 253.109 857.656L264.528 858.076L266.893 862.493C269.137 866.683 272.301 873.166 275.063 879.231L276.316 881.983L283.042 881.992L289.766 882L290.687 879.779C292.061 876.464 291.121 872.797 287.502 867.36C285.72 864.683 282.685 859.511 280.758 855.868C277.051 848.861 274.368 844.904 271.914 842.826C270.195 841.37 264.887 841.081 263.594 842.373C259.961 846.003 246.903 846.002 240.121 842.371C239.363 841.966 237.237 840.975 235.397 840.17C230.928 838.214 228.009 835.082 225.121 829.143C221.469 821.633 218.079 819.025 210.524 817.913C208.189 817.569 205.637 816.59 204.178 815.478C202.837 814.455 200.781 813.395 199.612 813.121C198.442 812.848 194.913 811.274 191.769 809.625C187.463 807.365 184.904 805.344 181.398 801.433C175.649 795.022 174.726 793.615 172.426 787.75C170.736 783.441 170.594 782.135 170.594 770.839C170.594 758.48 171.261 754.094 173.913 749.014C174.514 747.862 175.007 746.361 175.01 745.676C175.012 744.991 175.303 744.253 175.656 744.035C176.009 743.817 176.489 742.684 176.722 741.517C176.956 740.35 178.886 737.494 181.012 735.17C186.117 729.588 191.974 726.655 198.958 726.182C205.19 725.76 207.751 724.862 209.666 722.43C211.641 719.922 211.49 716.2 209.273 712.691C208.26 711.088 207.431 709.487 207.431 709.135C207.431 708.784 206.515 707.203 205.396 705.624C204.277 704.045 202.815 701.594 202.148 700.177C201.48 698.76 200.075 695.831 199.026 693.668C197.976 691.505 197.117 689.177 197.117 688.495C197.117 687.812 196.665 686.6 196.113 685.803C194.191 683.022 193.448 675.765 194.482 669.882C195.914 661.741 199.672 655.929 205.409 652.98C208.03 651.634 208.301 651.623 210.566 652.789C214.766 654.95 217.577 657.479 218.89 660.279C219.593 661.777 221.155 664.389 222.362 666.082C224.707 669.375 225.396 671.917 226.609 681.762C227.243 686.914 227.72 688.364 229.33 690.043C231.082 691.871 231.787 692.079 236.225 692.079C240.994 692.079 241.252 691.984 243.538 689.382C245.757 686.858 245.869 686.469 245.29 683.309C244.533 679.174 244.521 670.314 245.265 664.775C245.73 661.312 246.319 660.129 248.97 657.325C253.131 652.923 258.096 649.384 260.108 649.384C262.178 649.384 267.208 653.012 268.355 655.333C270.888 660.454 272.945 665.945 274.851 672.675C276.06 676.943 276.062 677.517 274.882 682.981C272.762 692.801 270.342 698.159 265.526 703.699C262.646 707.01 262.546 711.939 265.308 714.338C267.878 716.571 272.435 717.816 278.158 717.849C283.512 717.879 287.664 719.411 291.437 722.746C293.703 724.749 300.26 732.788 300.26 733.563C300.26 734.006 304.438 743.418 305.449 745.254C305.837 745.957 306.156 746.951 306.158 747.463C306.161 747.974 306.7 749.387 307.355 750.601C308.176 752.121 308.577 754.877 308.64 759.435C308.735 766.264 308.534 767.077 304.569 775.865C303.414 778.424 302.47 780.886 302.47 781.335C302.47 782.211 295.855 792.354 291.263 798.517C289.728 800.578 288.472 802.59 288.472 802.989C288.472 803.388 289.24 804.434 290.177 805.315C296.229 810.995 311.298 800.997 319.384 785.936C320.253 784.316 321.362 782.341 321.848 781.547C325.193 776.072 325.886 774.487 326.364 771.213C326.659 769.189 327.4 765.991 328.009 764.106C329.147 760.586 329.121 760.239 326.87 748.275C326.206 744.747 324.85 741.391 320.418 732.315C319.461 730.354 318.677 728.366 318.677 727.898C318.674 726.348 311.952 716.793 308.842 713.92C305.132 710.491 296.894 704.976 294.366 704.228C289.829 702.886 288.77 699.103 291.145 692.724C292.045 690.307 292.366 686.655 292.43 678.093C292.514 667.009 292.448 666.488 290.126 659.863C288.811 656.112 287.735 652.452 287.735 651.729C287.735 648.189 278.785 639.029 271.933 635.556C267.418 633.267 260.263 632.64 256.518 634.205C254.949 634.861 253.053 635.398 252.305 635.398C249.53 635.398 244.823 638.662 241.101 643.165C237.075 648.038 233.216 650.606 231.428 649.603C230.852 649.28 228.72 646.825 226.693 644.147C223.076 639.372 218.375 635.375 213.398 632.84C211.641 631.945 209.208 631.575 205.254 631.602C200.601 631.632 198.914 631.994 195.603 633.672C191.483 635.761 180.908 645.704 180.908 647.49C180.908 648.028 180.453 648.845 179.897 649.307C177.785 651.057 176.515 658.31 176.445 669.016C176.383 678.315 176.223 679.576 174.959 680.72C173.61 681.94 173.467 681.935 172.003 680.612C168.432 677.382 160.877 663.516 154.387 648.281C152.695 644.311 150.545 639.871 149.608 638.414C148.671 636.958 147.496 634.441 146.996 632.821C146.497 631.202 145.678 628.717 145.177 627.3C143.412 622.315 142.711 619.532 142.206 615.522C141.925 613.296 141.451 611.142 141.151 610.738C140.851 610.333 140.02 607.517 139.305 604.48C138.589 601.444 137.549 597.8 136.992 596.383C135.732 593.177 133.757 581.764 133.757 577.694C133.757 576.024 133.424 573.501 133.016 572.086C132.218 569.313 131.244 543.528 131.529 532.708C132.29 503.859 133.08 493.197 135.146 483.902C135.569 482 136.444 478.046 137.092 475.117C137.74 472.188 140.02 466.059 142.16 461.499C148.043 448.957 148.492 447.914 148.492 446.801C148.492 446.235 148.778 445.457 149.127 445.072C149.476 444.688 150.106 443.048 150.527 441.429C151.667 437.041 154.821 428.506 157.306 423.083C158.515 420.446 160.314 416.373 161.305 414.032C163.404 409.07 164.223 407.528 167.674 402.028C171.784 395.478 171.97 395.165 173.22 392.694C173.876 391.397 174.88 389.948 175.451 389.476C176.021 389.002 176.488 388.357 176.488 388.043C176.488 387.729 177.685 385.699 179.148 383.532C180.612 381.367 182.103 378.931 182.462 378.122C182.821 377.312 183.525 375.987 184.027 375.177C184.529 374.367 186.239 371.552 187.826 368.92C192.063 361.9 195.992 357.017 204.805 347.82C209.137 343.299 214.334 337.543 216.355 335.027C220.36 330.04 234.124 316.318 240.584 310.871C242.813 308.991 244.968 307.061 245.373 306.582C245.778 306.102 249.425 303.536 253.477 300.879C262.219 295.147 262.809 294.753 266.273 292.336C271.513 288.677 278.555 284.47 280.368 283.913C281.381 283.602 285.725 281.596 290.023 279.455C294.321 277.314 299.339 275.053 301.176 274.43C303.012 273.807 307.062 272.122 310.176 270.684C313.29 269.247 315.999 268.071 316.194 268.071C317.598 268.071 323.119 264.837 324.898 262.973C326.692 261.092 327.059 260.1 327.024 257.209C326.984 253.857 325.62 248.831 323.48 244.147C319.892 236.294 319.973 236.82 320.331 223.621C320.726 209.062 321.345 206.726 326.591 199.979C328.481 197.55 331.927 193.041 334.249 189.96C338.249 184.654 346.224 176.791 347.607 176.791C347.958 176.791 349.444 175.881 350.907 174.767C353.396 172.873 354.023 172.746 360.62 172.795C365.056 172.829 369.174 173.314 371.723 174.105C377.628 175.937 385.942 183.187 391.157 191.051C393.869 195.141 393.996 195.589 393.651 199.88C393.275 204.559 389.83 213.19 387.6 215.039C385.89 216.457 383.511 222.262 383.511 225.016C383.511 226.872 384.166 228.003 386.414 230.033C389.79 233.08 393.136 234.945 395.227 234.945C399.28 234.945 405.399 232.537 410.156 229.069C412.942 227.038 415.387 225.375 415.589 225.375C415.791 225.375 417.193 224.599 418.705 223.649C422.048 221.55 427.222 219.872 433.609 218.818C436.243 218.384 440.387 217.698 442.818 217.294C445.25 216.89 448.565 216.245 450.186 215.859C451.807 215.472 455.619 214.592 458.658 213.901C461.697 213.21 464.71 212.379 465.354 212.055C466.841 211.305 488.172 208.499 498.81 207.655C513.116 206.518 544.229 206.718 548.691 207.975C553.312 209.276 563.003 210.644 573.221 211.437C577.273 211.751 582.909 212.379 585.745 212.832C588.582 213.284 595.544 214.113 601.217 214.672C607.513 215.293 614.975 216.607 620.372 218.044C625.234 219.34 632.362 221.174 636.212 222.12C640.061 223.066 644.703 224.235 646.526 224.718C651.198 225.956 662.228 229.911 663.066 230.648C663.451 230.987 664.343 231.264 665.048 231.264C665.753 231.264 669.096 232.565 672.476 234.155C675.856 235.745 679.606 237.286 680.809 237.58C683.245 238.176 689.732 240.928 693.677 243.039C695.095 243.798 698.575 245.645 701.409 247.143C704.243 248.641 707.656 250.701 708.992 251.719C711.51 253.638 717.05 254.664 720.383 253.828C721.338 253.589 723.346 252.168 724.843 250.672C727.139 248.378 727.567 247.453 727.567 244.785C727.567 243.045 728.037 240.532 728.613 239.203C729.187 237.873 730.317 235.282 731.122 233.443C733.406 228.231 738.168 224.078 746.869 219.712C754.828 215.718 760.237 215.012 768.212 216.925C778.093 219.296 778.064 219.28 783.496 225.093C786.368 228.165 788.716 231.092 788.716 231.597C788.716 232.104 789.485 233.975 790.425 235.756C793.673 241.91 794.61 246.163 794.61 254.75C794.61 259.994 794.25 263.724 793.593 265.285C793.034 266.615 792.166 269.028 791.662 270.647C789.343 278.117 782.493 286.022 773.841 291.212C769.503 293.814 766.56 297.516 767.122 299.664C767.985 302.965 770.105 304.141 775.186 304.141C780.405 304.141 781.801 303.579 788.713 298.702C794.71 294.469 798.067 291.084 801.569 285.738C805.588 279.604 806.158 278.497 808.344 272.594C809.34 269.904 810.711 266.212 811.392 264.39C812.924 260.286 812.845 243.746 811.265 237.737C809.564 231.272 807.034 225.607 803.27 219.84C800.243 215.198 798.095 213.475 790.19 209.343C787.556 207.967 785.069 206.59 784.664 206.283C783.543 205.434 776.479 203.292 774.8 203.292C773.984 203.292 771.407 202.795 769.074 202.188C763.383 200.706 749.568 200.733 743.58 202.237C727.314 206.322 719.868 210.349 713.569 218.472C708.847 224.561 706.616 226.901 705.189 227.258C704.04 227.546 700.404 226.09 693.265 222.481C687.616 219.626 682.441 217.287 681.765 217.284C681.089 217.28 679.597 216.807 678.45 216.231C671.882 212.936 668.375 211.389 667.469 211.389C666.906 211.389 664.368 210.423 661.827 209.243C659.287 208.063 655.883 206.764 654.262 206.355C652.641 205.947 648.497 204.925 645.053 204.084C637.757 202.302 628.262 199.915 624.056 198.804C609.592 194.986 596.578 192.589 584.64 191.545C579.17 191.068 573.304 190.368 571.605 189.991C569.906 189.614 566.364 189.305 563.733 189.305C561.103 189.305 558.017 188.914 556.876 188.434C555.736 187.955 550.658 187.307 545.593 186.994C540.528 186.68 530.45 186.019 523.198 185.525C513.611 184.872 508.759 184.841 505.423 185.412C502.227 185.959 499.819 185.966 497.496 185.435C494.937 184.85 492.382 184.957 486.539 185.893C474.184 187.872 465.809 189.386 463.447 190.069C462.231 190.42 459.413 190.928 457.185 191.196C451.392 191.896 445.406 193.35 432.504 197.19C424.933 199.444 420.027 200.427 418.391 200.016C416.271 199.484 413.717 196.798 413.717 195.099C413.717 194.017 410.212 185.823 406.868 179.087C405.131 175.589 400.268 170.89 395.078 167.697C386.848 162.633 373.103 156.643 370.566 157.017C370.189 157.072 365.406 157.695 359.935 158.402ZM790.926 328.913C785.896 330.569 784.371 333.297 786.129 337.499C787.375 340.48 792.564 346.1 794.069 346.1C794.581 346.1 796.322 346.812 797.937 347.681C799.551 348.551 804.144 350.983 808.141 353.085C814.512 356.436 816.708 358.173 825.924 367.147C831.708 372.778 839.211 379.966 842.6 383.12C845.988 386.274 850.252 391.008 852.076 393.639C853.899 396.271 856.955 400.481 858.866 402.995C860.777 405.51 864.514 410.548 867.169 414.192C869.825 417.836 872.44 421.405 872.982 422.125C873.828 423.249 882.672 440.695 884.67 445.181C885.048 446.03 886.111 448.846 887.032 451.438C891.892 465.124 894.094 472.045 894.854 476.026C895.318 478.456 896.163 482.099 896.733 484.124C898.159 489.195 899.208 498.186 899.997 512.097C900.364 518.575 900.979 526.856 901.366 530.5C902.751 543.556 902.158 564.403 899.982 579.084C899.563 581.918 898.701 588.875 898.067 594.543C895.892 614.015 895.176 618.427 892.995 625.828C892.458 627.65 891.616 631.128 891.122 633.557C888.957 644.219 883.922 658.567 878.506 669.503C876.936 672.674 875.651 675.657 875.651 676.133C875.651 677.157 868.341 693.789 865.568 699.073C858.059 713.381 856.675 715.292 846.996 724.713C832.797 738.534 829.318 742.082 828.538 743.537C827.141 746.146 827.629 749.961 829.671 752.385C831.39 754.426 831.991 754.649 835.749 754.641C838.821 754.635 840.757 754.154 843.099 752.816C846.037 751.138 846.41 751.085 847.998 752.124C851.87 754.66 853.15 762.084 852.051 775.63C850.673 792.602 848.543 797.162 836.114 809.74C830.021 815.907 826.714 818.741 825.812 818.567C823.759 818.172 822.687 815.332 823.41 812.199C823.803 810.498 823.709 807.893 823.158 805.188C822.047 799.731 819.546 797.334 814.998 797.369C809.724 797.409 807.151 800.811 807.102 807.81C807.085 810.354 806.74 813.927 806.335 815.749C805.93 817.571 805.297 822.871 804.926 827.527C804.555 832.183 803.889 839.802 803.445 844.458C803.001 849.114 802.572 858.587 802.492 865.509C802.303 881.798 802.392 882 809.741 882H815.046L815.503 879.24C815.754 877.722 815.968 874.492 815.979 872.062C815.99 869.633 816.479 865.658 817.066 863.229C817.653 860.8 818.153 856.99 818.177 854.763C818.244 848.617 819.314 845.042 821.648 843.173C822.783 842.264 824.17 841.519 824.732 841.517C825.293 841.515 829.491 839.025 834.062 835.984C843.456 829.733 859.031 815.353 862.757 809.492C867.66 801.778 870.563 788.47 870.993 771.744C871.289 760.187 871.236 759.637 869.506 756.285C868.52 754.374 867.13 751.154 866.418 749.129C865.707 747.105 864.178 744.141 863.021 742.543C861.863 740.945 860.916 738.92 860.916 738.043C860.916 736.483 864.502 732.737 870.873 727.642C877.566 722.29 878.753 721.075 883.012 715.218C886.676 710.179 897.753 689.796 897.753 688.093C897.753 687.831 899.521 685.225 901.682 682.302C905.219 677.519 907.669 672.549 911.381 662.634C912.607 659.359 915.697 652.291 916.868 650.085C918.227 647.521 921.503 633.142 922.058 627.3C922.385 623.859 923.516 617.634 924.57 613.469C925.623 609.302 926.486 604.769 926.486 603.395C926.486 602.02 926.829 599.994 927.249 598.891C928.034 596.828 929.12 587.135 930.086 573.563C930.389 569.312 931.087 565.006 931.637 563.994C933.011 561.464 933.493 541.331 932.395 532.34C931.926 528.494 931.27 518.722 930.936 510.624C930.346 496.281 928.677 483.442 927.212 481.978C926.812 481.579 926.486 480.386 926.486 479.326C926.486 476.877 924.582 470.279 922.771 466.457C920.892 462.49 918.382 455.112 918.382 453.555C918.382 450.11 914.904 441.596 910.748 434.864C909.588 432.986 908.374 430.381 908.05 429.077C907.335 426.2 905.689 421.824 904.945 420.817C899.361 413.266 892.928 404.346 890.345 400.574C888.544 397.942 886.739 395.413 886.334 394.952C883.573 391.818 878.287 385.557 875.347 381.936C873.434 379.58 868.997 374.942 865.487 371.63C861.978 368.318 857.055 363.62 854.548 361.191C849.807 356.598 842.092 350.945 835.595 347.303C833.516 346.138 828.334 343.284 824.08 340.96C819.825 338.636 814.52 335.717 812.292 334.473C804.784 330.283 794.721 327.664 790.926 328.913ZM410.402 340.659C402.362 342.495 397.809 344.307 394.93 346.813C393.456 348.097 391.604 349.111 386.09 351.651C381.721 353.664 377.617 357.779 377.617 360.148C377.617 363.017 381.606 366.672 384.94 366.859C390.133 367.15 391.312 366.837 395.667 364.012C398.098 362.435 401.911 360.553 404.14 359.828C406.368 359.104 409.186 358.084 410.402 357.563C414.006 356.017 424.977 354.635 427.358 355.428C430.331 356.418 436.486 354.717 438.582 352.326C440.994 349.574 440.877 344.747 438.34 342.364C436.499 340.634 436.058 340.576 424.158 340.45C417.402 340.38 411.212 340.473 410.402 340.659ZM617.052 357.788C611.139 359.384 608.83 360.849 607.062 364.13C605.715 366.629 605.717 366.711 607.171 368.718C609.395 371.785 616.075 374.926 619.267 374.405C620.685 374.174 625.03 373.809 628.922 373.595C635.335 373.242 636.448 373.385 640.768 375.112C643.391 376.16 645.952 377.017 646.46 377.017C646.968 377.017 649.869 377.875 652.908 378.923C659.245 381.108 661.539 380.711 663.699 377.056C665.79 373.519 664.922 369.845 661.295 366.887C658.633 364.716 651.039 360.823 649.467 360.823C648.529 360.823 646.074 360.344 644.012 359.76C637.554 357.929 628.944 356.404 625.324 356.45C623.411 356.474 619.688 357.077 617.052 357.788ZM430.408 426.101C430.133 426.375 422.078 426.713 412.507 426.85C395.108 427.099 395.104 427.1 389.874 429.295C386.997 430.503 384.217 431.491 383.694 431.491C383.172 431.491 381.432 432.319 379.827 433.331C378.223 434.343 376.586 435.171 376.192 435.171C374.764 435.171 367.54 442.952 367.013 445.057C366.582 446.774 366.896 447.816 368.56 450.182C372.481 455.756 378.952 455.804 387.107 450.321C389.164 448.938 393.59 446.904 396.941 445.801C402.858 443.854 403.594 443.789 422.337 443.583C439.43 443.395 442.003 443.209 444.808 441.967C448.885 440.162 450.488 437.431 449.047 434.742C447.565 431.974 444.629 430.142 437.816 427.734C431.195 425.396 431.129 425.381 430.408 426.101ZM609.048 436.568C598.726 437.876 599.239 449.003 609.784 452.501C612.893 453.533 614.002 453.59 616.643 452.851C620.706 451.714 629.223 451.611 632.528 452.66C636.95 454.061 649.683 457.859 653.157 458.811C654.98 459.311 657.301 460.147 658.314 460.669C661.864 462.496 667.239 463.88 670.788 463.88C673.965 463.88 674.627 463.587 676.656 461.278C677.913 459.847 678.942 458.085 678.942 457.362C678.942 455.497 674.404 450.477 671.472 449.098C670.11 448.459 666.51 446.732 663.471 445.262C657.231 442.242 648.629 439.306 641.001 437.59C635.415 436.333 615.84 435.707 609.048 436.568ZM253.477 474.091C252.261 474.845 250.575 476.252 249.73 477.217C247.985 479.209 243.531 486.437 243.531 487.277C243.531 487.581 242.765 488.984 241.828 490.394C238.36 495.615 235.868 504.836 236.633 509.619C237.33 513.972 239.548 516.209 243.621 516.668C246.627 517.007 247.145 516.835 248.57 515.024C249.803 513.458 250.164 511.988 250.173 508.501C250.185 503.561 251.189 500.011 253.532 496.634C254.899 494.661 257.251 490.337 261.425 482.125C263.129 478.772 262.601 475.519 260.087 473.873C257.779 472.361 256.179 472.414 253.477 474.091ZM321.325 476.21C319.374 478.291 316.468 483.458 316.468 484.848C316.468 485.575 312.834 495.535 311.361 498.846C309.911 502.106 308.183 508.566 308.109 511.012C307.94 516.542 313.791 520.931 318.075 518.487C320.079 517.344 321.38 514.532 322.985 507.87C323.788 504.538 328.195 492.569 329.894 489.107C330.337 488.204 330.727 485.489 330.759 483.074C330.812 479.181 330.574 478.428 328.662 476.435C325.992 473.649 323.79 473.582 321.325 476.21ZM284.041 478.81C282.194 480.296 280.489 483.397 278.821 488.305C277.951 490.864 276.949 493.272 276.594 493.657C276.238 494.042 275.947 495.228 275.947 496.294C275.947 497.361 275.734 498.446 275.473 498.706C274.689 499.49 271.676 507.262 270.737 510.925C269.954 513.974 270.024 514.674 271.375 517.321C273.269 521.029 274.425 522 277.557 522.507C279.325 522.794 280.505 522.52 281.679 521.551C283.402 520.131 286.262 512.974 286.262 510.085C286.262 509.16 287.29 505.591 288.548 502.153C289.805 498.715 291.321 494.577 291.915 492.957C292.509 491.338 293.304 489.698 293.681 489.313C294.058 488.929 294.366 487.086 294.366 485.218C294.366 482.459 293.979 481.452 292.299 479.845C290.048 477.689 286.057 477.19 284.041 478.81ZM347.542 492.921C343.889 497.077 339.488 505.085 337.487 511.215C335.439 517.49 335.639 518.837 338.936 520.996C340.447 521.985 341.149 522.027 343.458 521.266C344.961 520.77 346.939 519.559 347.851 518.574C350.244 515.995 356.751 502.347 357.35 498.655C357.82 495.75 357.668 495.329 355.287 492.95C352.055 489.721 350.359 489.715 347.542 492.921ZM706.085 493.929C698.985 496.837 683.363 518.226 683.363 525.04C683.363 527.911 685.111 530.498 687.803 531.612C690.824 532.862 693.324 531.109 697.781 524.611C699.724 521.777 702.234 518.133 703.356 516.513C704.479 514.894 707.383 511.428 709.81 508.813C715.093 503.118 716.112 501.373 715.52 499.019C714.475 494.856 709.877 492.376 706.085 493.929ZM738.987 496.673C735.039 498.705 730.587 503.178 726.495 509.222C722.542 515.062 719.463 521.418 719.463 523.741C719.463 527.99 723.686 532.34 727.812 532.34C730.192 532.34 734.661 528.179 735.366 525.307C736.328 521.387 740.307 515.12 744.842 510.387C749.849 505.159 750.687 503.533 750.069 500.235C749.133 495.231 744.61 493.777 738.987 496.673ZM510.849 501.439C506.229 503.877 505.073 506.018 505.073 512.128C505.073 517.472 505.066 517.489 501.785 520.862C499.977 522.722 498.015 524.243 497.425 524.243C496.835 524.243 494.702 525.071 492.686 526.083C488.033 528.418 487.118 528.386 482.494 525.736C477.843 523.072 475.939 520.751 475.342 517.018C474.449 511.438 469.97 508.366 463.52 508.91C459.315 509.264 457.542 511.941 457.591 517.858C457.621 521.51 458.127 523.409 460.169 527.527C462.53 532.288 463.283 533.072 470.773 538.569L478.837 544.486H488.086C496.317 544.486 497.959 544.263 502.986 542.462C511.509 539.408 511.991 539.522 519.624 546.41C524.564 550.867 527.108 552.107 533.051 552.953C539.241 553.834 550.386 553.102 553.697 551.596C559.238 549.075 565.399 543.378 565.464 540.713C565.475 540.257 566.332 537.969 567.369 535.629C569 531.943 569.134 531.089 568.37 529.245C567.199 526.421 564.198 524.979 559.491 524.979C555.718 524.979 555.545 525.075 551.494 529.449C547.274 534.005 542.571 536.766 539.066 536.745C536.013 536.726 531.476 533.729 529.036 530.119C526.96 527.047 526.802 526.338 526.739 519.826C526.649 510.367 524.818 505.349 520.249 502.034C516.906 499.61 514.592 499.463 510.849 501.439ZM765.461 503.54C762.602 505.282 758.527 510.934 754.791 518.336C752.436 523.004 751.879 524.891 751.879 528.223C751.879 533.694 753.621 535.64 757.994 535.054C761.396 534.598 760.79 535.247 771.046 521.063C779.273 509.685 779.749 508.172 776.265 504.445C774.506 502.564 773.559 502.16 770.923 502.162C769.095 502.163 766.75 502.755 765.461 503.54ZM798.278 507.555C793.556 509.744 790.19 514.067 790.19 517.945C790.19 520.775 789.21 525.627 787.56 530.966C786.143 535.553 786.197 535.986 788.486 538.373C791.044 541.04 793.59 541.015 797.36 538.287C799.674 536.612 801.097 534.54 803.803 528.902C805.714 524.922 808.119 519.915 809.149 517.774C811.011 513.903 811.014 513.87 809.656 511.35C808.777 509.719 807.293 508.418 805.487 507.696C802.235 506.396 800.841 506.369 798.278 507.555ZM502.126 571.445C499.48 572.499 496.969 575.062 496.969 576.706C496.969 578.718 499.653 582.224 502.201 583.54C503.735 584.332 507.01 584.707 513.378 584.817C521.646 584.961 522.575 584.838 524.683 583.336C527.767 581.138 529.081 577.964 527.863 575.654C526.61 573.278 525.786 572.853 522.386 572.827C520.765 572.815 518.113 572.327 516.492 571.744C513.12 570.53 504.855 570.359 502.126 571.445ZM264.16 737.912C260.645 738.973 253.255 743.954 250.378 747.2C243.376 755.101 240.449 769.004 243.524 779.769C244.638 783.671 249.477 788.751 254.211 790.991C257.622 792.605 259.34 792.929 264.491 792.929C270.416 792.929 270.773 792.833 272.944 790.664C275.393 788.216 275.716 786.662 274.191 784.655C273.118 783.243 268.635 781.165 266.578 781.126C265.048 781.098 262.803 779.336 261.006 776.754C258.059 772.519 260.438 761.219 265.621 754.841C267.451 752.588 269.943 750.207 271.159 749.55C275.779 747.054 277.421 745.616 277.405 744.076C277.381 741.804 275.265 739.489 271.99 738.149C268.776 736.835 267.821 736.806 264.16 737.912Z" fill="#F00000"/>
<circle cx="519.5" cy="519.5" r="502.5" stroke="#F00000" stroke-width="34"/>
</svg>
