<svg width="625" height="516" viewBox="0 0 625 516" fill="none" xmlns="http://www.w3.org/2000/svg">
<path fill-rule="evenodd" clip-rule="evenodd" d="M127.904 0.551422C115.807 3.11942 102.234 10.7864 95.4465 18.8854C84.5755 31.8584 80.4435 46.2204 82.6625 63.3254C83.9925 73.5724 85.5575 77.5254 92.3405 87.7684L97.3585 95.3454L82.1715 107.444C64.5605 121.473 47.3355 138.818 42.8255 147.064C42.2245 148.164 39.2755 153.143 36.2735 158.129C25.7515 175.606 20.5245 188.152 10.6335 219.672C3.66954 241.866 1.66154 253.395 0.55154 277.564C-0.42346 298.778 -0.155461 309.016 1.75454 323.564C3.66554 338.118 9.43754 360.334 13.2745 367.907C14.6735 370.668 17.3935 377.008 19.3185 381.996C24.3785 395.104 25.7805 397.573 36.8575 412.887C48.2615 428.653 65.3975 447.02 75.9275 454.764C79.8725 457.665 85.4805 461.957 88.3895 464.302C91.2985 466.646 94.1025 468.564 94.6215 468.564C95.1405 468.564 98.5015 470.361 102.09 472.557C110.24 477.546 126.126 485.564 127.859 485.564C128.573 485.564 132.52 487.185 136.629 489.166C144.939 493.173 154.742 496.567 157.981 496.559C159.147 496.556 162.126 497.211 164.601 498.014C170.393 499.894 190.25 505.51 196.601 507.066C202.87 508.602 238.026 513.549 242.072 513.465C243.738 513.43 250.726 513.965 257.601 514.653C274.126 516.308 347.503 516.337 365.601 514.696C373.026 514.023 381.351 513.337 384.101 513.171C393.136 512.626 411.021 510.355 413.399 509.451C414.682 508.963 417.164 508.551 418.916 508.535C420.668 508.519 425.251 507.592 429.101 506.475C432.951 505.358 437.901 504.032 440.101 503.529C442.301 503.025 445.901 501.947 448.101 501.133C450.301 500.318 452.986 499.632 454.068 499.608C455.149 499.584 457.849 498.947 460.068 498.193C462.286 497.438 467.476 496.029 471.601 495.061C475.726 494.093 482.579 491.56 486.829 489.432C491.079 487.305 495.129 485.56 495.829 485.556C499.794 485.53 528.186 469.559 541.145 460.064C557.06 448.404 575.026 430.411 584.109 417.035C586.304 413.801 590.259 408.271 592.897 404.746C601.343 393.458 609.959 373.892 616.594 350.93C630.287 303.54 625.986 251.873 603.167 189.635C599.041 178.382 596.499 173.395 583.648 151.342C578.723 142.89 570.656 132.848 562.451 124.957C556.301 119.043 531.427 98.6854 528.021 96.7794C526.53 95.9454 526.791 95.1724 530.333 89.9514C539.311 76.7174 541.904 68.2954 541.695 53.0494C541.302 24.3454 517.162 0.467426 488.669 0.599426C473.376 0.670426 459.822 5.62342 451.202 14.2914C445.364 20.1624 436.476 33.4244 434.097 39.8144C433.125 42.4274 431.837 44.5644 431.236 44.5644C430.635 44.5644 427.209 43.4914 423.622 42.1794C415.688 39.2784 404.174 35.5244 400.101 34.5104C398.451 34.1004 390.126 31.9624 381.601 29.7594C373.076 27.5574 364.076 25.4594 361.601 25.0984C359.126 24.7374 352.601 23.5384 347.101 22.4354C338.64 20.7374 333.253 20.4354 312.101 20.4704C298.351 20.4934 284.851 20.9344 282.101 21.4504C279.351 21.9664 272.151 23.2894 266.101 24.3904C246.05 28.0404 216.303 36.1774 198.47 42.8894C194.854 44.2504 191.403 45.0604 190.803 44.6894C190.202 44.3174 189.214 41.7974 188.607 39.0894C185.426 24.8974 168.318 7.06742 153.436 2.43642C146.416 0.251424 133.729 -0.685578 127.904 0.551422ZM151.179 20.0714C162.138 26.1994 170.532 38.8644 171.366 50.5304C171.782 56.3434 171.507 57.8324 169.222 62.1244C165.999 68.1794 165.993 68.6164 169.096 71.9644C171.258 74.2974 172.092 74.5664 175.346 73.9784C177.411 73.6054 181.576 72.0264 184.601 70.4684C200.078 62.5014 217.691 55.5644 222.445 55.5644C223.651 55.5644 227.859 54.4394 231.794 53.0644C235.73 51.6894 239.926 50.5644 241.119 50.5644C242.312 50.5644 245.904 49.6644 249.101 48.5644C252.298 47.4644 256.981 46.5594 259.508 46.5534C262.034 46.5474 266.351 45.8384 269.101 44.9774C284.009 40.3104 341.401 40.2904 354.601 44.9474C357.076 45.8204 361.126 46.5404 363.601 46.5464C366.076 46.5534 371.251 47.4224 375.101 48.4794C378.951 49.5354 384.801 51.1424 388.101 52.0494C391.401 52.9574 396.126 54.1524 398.601 54.7064C408.049 56.8214 419.553 61.0614 431.572 66.8594C438.43 70.1674 445.573 73.2194 447.445 73.6424C455.492 75.4564 459.707 68.3294 454.501 61.7104C451.866 58.3604 451.927 48.4004 454.625 41.3524C457.768 33.1404 465.416 24.3244 473.148 20.0004C479.419 16.4934 480.103 16.3344 486.924 16.7814C498.653 17.5504 510.707 24.8224 515.799 34.2004C520.142 42.1994 522.644 53.8714 521.663 61.5644C519.514 78.4194 512.452 91.5884 504.074 94.3614C499.379 95.9154 496.601 98.2404 496.601 100.615C496.601 102.872 502.852 108.351 506.369 109.176C512.044 110.507 522.234 117.698 535.187 129.513C538.535 132.566 544.466 137.878 548.367 141.317C553.591 145.922 558.078 151.455 565.396 162.317C581.764 186.61 586.074 196.578 594.038 228.564C602.46 262.39 603.068 266.711 602.969 292.064C602.873 316.811 601.557 327.707 596.57 345.082C587.101 378.073 573.431 399.723 546.601 424.215C523.089 445.679 504.576 457.502 481.792 465.608C478.871 466.647 473.696 468.827 470.292 470.453C466.887 472.079 461.851 473.914 459.101 474.532C451.589 476.22 423.869 483.243 417.601 485.046C408.061 487.79 387.486 491.62 377.101 492.585C371.601 493.096 364.528 493.95 361.384 494.481C346.99 496.916 315.158 497.922 291.457 496.691C278.611 496.024 265.851 495.039 263.101 494.504C260.351 493.968 253.151 493.09 247.101 492.552C233.648 491.356 217.379 488.102 195.601 482.249C186.526 479.81 174.601 476.784 169.101 475.523C163.601 474.263 156.935 472.159 154.288 470.849C151.641 469.538 146.016 467.093 141.788 465.415C137.56 463.737 131.855 461.469 129.11 460.376C119.481 456.542 101.195 444.766 89.1075 434.616C76.0665 423.664 56.3815 403.461 49.6645 394.133C29.4225 366.024 18.0425 322.022 20.6465 281.923C22.8825 247.471 35.8475 198.81 48.2665 178.258C62.5975 154.54 67.5485 148.543 88.2295 129.854C100.92 118.386 115.108 108.564 118.983 108.564C120.323 108.564 126.41 103.505 127.037 101.871C128.032 99.2784 124.903 95.7224 120.61 94.5664C118.106 93.8924 115.21 91.9774 112.857 89.4394C108.058 84.2634 107.973 84.1004 104.932 74.3024C98.6865 54.1804 103.429 34.7394 117.121 24.3324C123.96 19.1354 130.766 16.6794 138.505 16.6164C144.021 16.5714 145.778 17.0504 151.179 20.0714ZM218.101 135.282C212.186 136.105 196.441 141.509 191.175 144.522C185.903 147.538 178.601 154.561 178.601 156.615C178.601 157.189 179.839 158.808 181.351 160.213C185.497 164.061 192.024 163.185 198.364 157.927C204.843 152.555 209.731 150.724 218.92 150.226C225.771 149.855 227.194 149.434 230.42 146.823C235.439 142.761 235.345 139.832 230.101 136.862C226.212 134.66 224.337 134.413 218.101 135.282ZM389.897 139.221C384.859 140.993 383.48 143.887 386.32 146.728C387.381 147.788 392.266 149.755 397.175 151.097C409.5 154.468 417.075 157.393 423.507 161.266C431.784 166.251 436.119 165.633 437.556 159.265C438.603 154.622 437.482 153.061 428.885 147.191C422.026 142.508 416.983 140.988 402.101 139.117C399.351 138.771 396.426 138.32 395.601 138.115C394.776 137.91 392.209 138.408 389.897 139.221ZM380.87 212.651C374.137 214.784 372.016 217.099 373.044 221.193C373.863 224.456 377.215 225.564 386.267 225.564C390.411 225.564 399.038 226.55 405.437 227.755C415.048 229.564 418.888 230.868 427.521 235.255C439.044 241.109 442.66 241.746 445.044 238.341C447.807 234.397 447.015 231.077 442.351 227.057C433.441 219.378 425.194 215.909 407.933 212.577C395.052 210.092 388.894 210.108 380.87 212.651ZM210.988 212.653C199.694 214.542 179.317 223.567 175.559 228.345C173.084 231.492 173.093 233.056 175.601 235.564C178.62 238.583 185.009 238.2 192.286 234.564C206.711 227.355 218.841 224.922 232.657 226.464C241.312 227.431 242.195 227.36 245.284 225.451C249.748 222.692 250.686 218.891 247.497 216.486C241.879 212.248 224.39 210.412 210.988 212.653ZM114.679 258.222C113.345 259.157 109.91 264.933 106.807 271.462C99.2585 287.34 98.5735 295.068 104.498 297.521C106.651 298.413 107.959 298.443 109.468 297.635C112.828 295.837 125.601 267.371 125.601 261.683C125.601 256.764 119.514 254.835 114.679 258.222ZM453.857 261.814C450.447 265.348 444.436 276.833 441.437 285.545C439.159 292.162 440.225 296.235 444.478 297.16C445.92 297.474 447.642 297.896 448.302 298.097C450.71 298.832 453.653 294.898 456.078 287.7C457.443 283.65 460.369 277.198 462.58 273.362C467.019 265.662 467.334 264.056 465.044 260.787C462.636 257.348 457.732 257.799 453.857 261.814ZM511.355 263.445C509.187 266.022 500.601 289.706 500.601 293.11C500.601 296.107 502.978 299.564 505.039 299.564C508.446 299.564 511.188 296.996 514.909 290.32C521.271 278.903 523.118 268.94 519.885 263.468C517.671 259.72 514.496 259.711 511.355 263.445ZM149.052 263.752C146.606 264.872 145.688 266.263 139.418 278.352C133.925 288.944 133.188 294.151 136.688 297.651C138.209 299.172 139.496 299.569 141.438 299.115C144.745 298.342 149.601 293.223 149.601 290.508C149.601 289.395 150.448 286.815 151.483 284.774C154.018 279.775 156.02 270.371 155.224 267.2C154.413 263.968 151.785 262.5 149.052 263.752ZM483.332 264.314C480.657 267.28 472.601 287.67 472.601 291.475C472.601 298.069 478.962 300.747 484.094 296.314C487.126 293.695 493.578 276.153 493.592 270.488C493.608 264.22 487.002 260.245 483.332 264.314ZM176.714 266.147C175.597 267.568 173.803 271.055 172.728 273.897C171.652 276.739 169.844 281.089 168.709 283.564C164.985 291.684 166.511 298.564 172.036 298.564C175.512 298.564 179.448 293.903 181.244 287.661C182.13 284.583 183.744 280.303 184.832 278.15C189.351 269.204 182.397 258.923 176.714 266.147ZM306.301 265.778C300.842 267.226 299.06 270.36 300.483 276.011C302.004 282.05 302.008 282.031 298.525 285.998C296.59 288.201 294.166 289.743 291.995 290.15C288.84 290.742 288.074 290.356 283.131 285.681C277.059 279.938 273.949 279.15 267.423 281.7C263.562 283.209 263.23 285.256 266.063 290.089C268.824 294.801 273.377 299.013 278.19 301.308C281.169 302.728 281.372 303.189 281.997 309.936C283.542 326.627 289.642 343.529 296.923 351.292C302.61 357.355 317.814 359.978 325.601 356.239C330.855 353.716 338.78 347.421 341.172 343.872C343.996 339.682 346.307 329.62 347.725 315.336C348.77 304.814 349.106 303.539 350.995 302.948C356.883 301.105 361.585 294.86 361.594 288.871C361.602 283.798 359.077 281.564 353.333 281.564C349.389 281.564 347.32 283.097 343.219 289.055C341.476 291.588 340.935 291.756 335.898 291.339C331.323 290.959 329.902 290.331 326.961 287.391C323.459 283.888 321.672 279.052 321.625 272.949C321.612 271.236 320.668 268.648 319.528 267.199C317.248 264.3 313.423 263.89 306.301 265.778ZM320.809 301.932L329.101 306.3L329.601 311.682C330.645 322.917 326.901 337.272 321.7 341.976C319.075 344.35 313.64 344.29 309.494 341.843C301.203 336.948 293.929 307.735 300.095 304.095C301.055 303.528 303.699 301.835 305.971 300.332C308.242 298.83 310.645 297.592 311.309 297.582C311.973 297.572 316.248 299.53 320.809 301.932ZM295.156 372.763C292.404 375.131 292.381 375.238 293.974 378.319C297.239 384.633 305.041 388.564 314.307 388.564C322.282 388.564 327.978 386.789 332.542 382.882C337.17 378.921 337.894 375.326 334.438 373.477C331.906 372.122 323.119 373.701 319.985 376.074C317.024 378.316 313.802 377.82 309.65 374.483C304.338 370.214 298.873 369.565 295.156 372.763Z" fill="#F00000"/>
</svg>
